Coordinates
version=1
nRows=27
nColumns=12
inDegrees=yes

Units are S.I. units (second, meters, Newtons, ...)
Angles are in degrees

endheader
time	SC_y	SC_z	SC_x	AC_y	AC_z	AC_x	GH_y	GH_z	GH_yy	EL_x	PS_y
       0.0              -12.61         -2.534          69.74          30.97          6.062         -5.953          53.73          67.65        -0.4314          125.0          51.56
   0.04176              -12.61         -2.531          69.74          30.97           6.06         -5.955          53.71          67.65        -0.4127          125.0          51.58
   0.08352              -12.62         -2.528          69.73          30.98          6.059         -5.957          53.69          67.65        -0.3927          125.0          51.59
    0.1253              -12.62         -2.524          69.72          30.98          6.057         -5.959          53.67          67.66        -0.3715          125.0           51.6
     0.167              -12.62         -2.521          69.72          30.98          6.055         -5.961          53.65          67.66         -0.349          125.0          51.61
    0.2088              -12.62         -2.517          69.71          30.98          6.053         -5.964          53.63          67.66        -0.3249          125.0          51.63
    0.2506              -12.63         -2.512           69.7          30.98          6.051         -5.967           53.6          67.67        -0.2992          125.0          51.64
    0.2923              -12.63         -2.508          69.69          30.98          6.049         -5.969          53.58          67.67        -0.2717          125.0          51.66
    0.3341              -12.63         -2.503          69.68          30.98          6.047         -5.972          53.55          67.68        -0.2423          125.0          51.67
    0.3758              -12.64         -2.497          69.68          30.98          6.044         -5.976          53.52          67.68        -0.2107          125.0          51.69
    0.4176              -12.64         -2.492          69.67          30.98          6.042         -5.979          53.49          67.69        -0.1768          125.0          51.71
    0.4593              -12.64         -2.486          69.65          30.98          6.039         -5.983          53.45          67.69        -0.1403          125.0          51.73
    0.5011              -12.65         -2.479          69.64          30.98          6.036         -5.987          53.41           67.7        -0.1009          125.0          51.76
    0.5429              -12.65         -2.472          69.63          30.99          6.032         -5.991          53.37           67.7       -0.05844          125.0          51.78
    0.5846              -12.66         -2.464          69.62          30.99          6.029         -5.996          53.33          67.71       -0.01245          125.0          51.81
    0.6264              -12.66         -2.456           69.6          30.99          6.025         -6.001          53.28          67.72        0.03742          124.9          51.84
    0.6681              -12.67         -2.447          69.58          30.99           6.02         -6.007          53.23          67.72        0.09163          124.9          51.87
    0.7099              -12.67         -2.437          69.57          30.99          6.016         -6.013          53.17          67.73         0.1507          124.9           51.9
    0.7517              -12.68         -2.426          69.55          30.99          6.011          -6.02          53.11          67.74         0.2152          124.9          51.94
    0.7934              -12.69         -2.414          69.53           31.0          6.005         -6.027          53.04          67.75         0.2858          124.9          51.98
    0.8352               -12.7         -2.401           69.5           31.0          5.999         -6.035          52.96          67.76         0.3633          124.9          52.02
    0.8769              -12.71         -2.387          69.48           31.0          5.992         -6.044          52.88          67.78         0.4486          124.9          52.07
    0.9187              -12.72         -2.371          69.45           31.0          5.985         -6.053          52.79          67.79         0.5428          124.9          52.13
    0.9604              -12.73         -2.353          69.42          31.01          5.976         -6.064          52.69           67.8         0.6472          124.9          52.19
     1.002              -12.74         -2.334          69.38          31.01          5.967         -6.076          52.58          67.82         0.7633          124.9          52.26
     1.044              -12.76         -2.312          69.34          31.01          5.957         -6.089          52.45          67.84         0.8928          124.9          52.33
     1.086              -12.77         -2.288           69.3          31.02          5.945         -6.104          52.31          67.86          1.038          124.9          52.41
